<?xml version="1.0" standalone="no"?>
<!DOCTYPE svg PUBLIC "-//W3C//DTD SVG 20010904//EN"
 "http://www.w3.org/TR/2001/REC-SVG-20010904/DTD/svg10.dtd">
<svg version="1.0" xmlns="http://www.w3.org/2000/svg"
 width="200.000000pt" height="200.000000pt" viewBox="0 0 200.000000 200.000000"
 preserveAspectRatio="xMidYMid meet">
<metadata>
Created by potrace 1.14, written by Peter Selinger 2001-2017
</metadata>
<g transform="translate(0.000000,200.000000) scale(0.100000,-0.100000)"
fill="#000000" stroke="none">
<path d="M885 1994 c-352 -52 -625 -245 -777 -549 -311 -619 92 -1356 786
-1436 622 -73 1168 472 1099 1094 -48 424 -347 767 -758 868 -78 19 -285 33
-350 23z m293 -110 c355 -73 633 -351 706 -706 20 -99 20 -257 0 -356 -72
-351 -351 -631 -699 -703 -302 -63 -608 30 -825 250 -399 404 -332 1064 141
1381 95 63 205 110 314 133 94 21 267 21 363 1z"/>
<path d="M490 1454 c0 -3 69 -80 153 -172 133 -146 471 -519 683 -754 l69 -76
3 144 3 144 -327 360 -326 360 -129 0 c-71 0 -129 -3 -129 -6z"/>
<path d="M1245 1424 c79 -103 101 -150 131 -279 7 -28 8 -26 16 23 11 74 44
146 100 220 27 35 48 65 48 68 0 2 -73 4 -161 4 l-161 0 27 -36z"/>
<path d="M658 795 c-7 -72 -49 -168 -107 -245 l-42 -55 80 -3 c45 -2 117 -2
160 0 l79 3 -45 60 c-57 75 -82 130 -103 225 l-17 75 -5 -60z"/>
</g>
</svg>
